<?xml version="1.0" standalone="no"?>
<!DOCTYPE svg PUBLIC "-//W3C//DTD SVG 20010904//EN"
 "http://www.w3.org/TR/2001/REC-SVG-20010904/DTD/svg10.dtd">
<svg version="1.0" xmlns="http://www.w3.org/2000/svg"
 width="1500.000000pt" height="1500.000000pt" viewBox="0 0 1500.000000 1500.000000"
 preserveAspectRatio="xMidYMid meet">

<g transform="translate(0.000000,1500.000000) scale(0.100000,-0.100000)"
fill="#000000" stroke="none">
<path d="M0 7500 l0 -7500 7500 0 7500 0 0 7500 0 7500 -7500 0 -7500 0 0
-7500z m5550 1940 l0 -1200 1935 0 1935 0 0 1200 0 1200 745 0 745 0 0 -3390
0 -3390 -500 0 -500 0 0 1710 0 1710 -2415 0 -2415 0 0 -1710 0 -1710 -470 0
-470 0 0 3155 0 3155 240 0 240 0 0 235 0 235 465 0 465 0 0 -1200z m1460 225
l0 -975 -455 0 -455 0 0 975 0 975 455 0 455 0 0 -975z m-2890 520 c0 -8 -4
-15 -10 -15 -5 0 -7 7 -4 15 4 8 8 15 10 15 2 0 4 -7 4 -15z m5270 -4860 l0
-1465 -40 0 -40 0 0 1245 0 1245 -25 0 -25 0 0 -1245 0 -1245 -1835 0 -1835 0
0 1465 0 1465 1900 0 1900 0 0 -1465z"/>
<path d="M10750 7150 l0 -3110 40 0 40 0 0 3110 0 3110 -40 0 -40 0 0 -3110z"/>
<path d="M4280 8615 l0 -1245 25 0 25 0 0 1245 0 1245 -25 0 -25 0 0 -1245z"/>
</g>
</svg>
